<svg width="184.983521" height="186.865234" viewBox="0 0 184.984 186.865" fill="none" xmlns="http://www.w3.org/2000/svg" xmlns:xlink="http://www.w3.org/1999/xlink">
	<desc>
			Created with Pixso.
	</desc>
	<defs>
		<linearGradient x1="92.491760" y1="0.000000" x2="92.491760" y2="186.865189" id="paint_linear_13_48_0" gradientUnits="userSpaceOnUse">
			<stop stop-color="#C0B7E8"/>
			<stop offset="1.000000" stop-color="#8176AF"/>
		</linearGradient>
	</defs>
	<path id="Vector" d="M182.77 74.9C185.19 88.91 170.32 85.18 170.32 85.18C164.1 67.63 154.15 69.27 154.15 69.27C161.94 74.96 162.53 79.81 162.53 79.81C141.77 65.08 113.55 76.93 102.81 82.49C96.78 73.98 84.6 54.93 88.92 46.28C94.62 34.96 106.21 41.44 106.21 41.44C129.66 41.05 128.35 32.67 128.35 32.67C122.13 37.51 103.79 32.67 103.79 32.67C119.7 32.67 126.45 26.18 126.45 26.18C114.6 29.13 101.37 16.49 101.37 16.49C96.52 -8.32 74.12 2.22 74.12 2.22C88.14 -0.2 84.41 14.66 84.41 14.66C66.86 20.88 68.49 30.83 68.49 30.83C74.19 23.04 79.04 22.45 79.04 22.45C62.99 45.04 78.45 76.47 83.03 84.65C74.65 90.48 55 103.31 46.16 98.86C34.83 93.17 41.32 81.58 41.32 81.58C41.05 58.14 32.67 59.45 32.67 59.45C37.52 65.67 32.67 84 32.67 84C32.67 68.09 26.19 61.34 26.19 61.34C29.13 73.2 16.5 86.42 16.5 86.42C-8.32 91.27 2.22 113.66 2.22 113.66C-0.2 99.65 14.66 103.38 14.66 103.38C20.88 120.93 30.84 119.29 30.84 119.29C23.04 113.59 22.46 108.75 22.46 108.75C44.39 124.33 74.71 110.19 83.88 105.21C90.04 114.05 101.5 132.25 97.24 140.7C91.54 152.03 79.95 145.55 79.95 145.55C56.51 145.81 57.82 154.19 57.82 154.19C64.04 149.34 82.38 154.19 82.38 154.19C66.46 154.19 59.72 160.67 59.72 160.67C71.57 157.73 84.8 170.36 84.8 170.36C89.64 195.18 112.04 184.64 112.04 184.64C98.03 187.06 101.76 172.2 101.76 172.2C119.31 165.98 117.67 156.02 117.67 156.02C111.98 163.81 107.13 164.4 107.13 164.4C122.85 142.34 108.37 111.76 103.46 102.79C112.37 96.57 130.38 85.44 138.69 89.63C150.02 95.33 143.54 106.92 143.54 106.92C143.8 130.36 152.18 129.05 152.18 129.05C147.34 122.83 152.18 104.49 152.18 104.49C152.18 120.4 158.67 127.15 158.67 127.15C155.72 115.3 168.36 102.07 168.36 102.07C193.31 97.29 182.77 74.9 182.77 74.9Z" fill="url(#paint_linear_13_48_0)" fill-opacity="1.000000" fill-rule="nonzero"/>
</svg>
