<svg width="32.000000" height="32.000000" viewBox="0 0 32 32" fill="none" xmlns="http://www.w3.org/2000/svg" xmlns:xlink="http://www.w3.org/1999/xlink">
	<desc>
			Created with Pixso.
	</desc>
	<defs/>
	<path id="pinterest" d="M0 16C0 7.16 7.16 0 16 0C24.83 0 32 7.16 32 16C32 24.83 24.83 32 16 32C7.16 32 0 24.83 0 16ZM8 16C8 11.6 11.6 8 16 8C20.4 8 24 11.6 23.9 15.6C23.9 20 20.29 23.6 15.9 23.6C15.1 23.6 14.3 23.5 13.6 23.29C13.9 22.79 14.2 22.2 14.4 21.6C14.5 21.2 15 19.39 15 19.39C15.3 19.89 16.1 20.39 17 20.39C19.6 20.39 21.3 18 21.3 14.89C21.3 12.5 19.29 10.29 16.2 10.29C12.4 10.29 10.5 13 10.5 15.29C10.5 16.7 11 17.89 12.1 18.39C12.3 18.5 12.4 18.39 12.5 18.2C12.6 18.1 12.7 17.7 12.7 17.6C12.77 17.45 12.74 17.41 12.68 17.33C12.65 17.29 12.62 17.25 12.6 17.2C12.3 16.79 12.1 16.29 12.1 15.6C12.1 13.6 13.6 11.79 16 11.79C18.1 11.79 19.29 13.1 19.29 14.89C19.29 17.29 18.29 19.2 16.79 19.2C15.9 19.2 15.3 18.5 15.5 17.7C15.58 17.28 15.71 16.84 15.84 16.43C16.03 15.85 16.2 15.3 16.2 14.89C16.2 14.2 15.8 13.7 15.1 13.7C14.3 13.7 13.6 14.6 13.6 15.79C13.6 16.6 13.9 17.1 13.9 17.1C13.9 17.1 13.1 20.79 12.9 21.5C12.8 22.1 12.8 22.69 12.8 23.29C10 22.1 8 19.29 8 16Z" fill="#C0B7E8" fill-opacity="1.000000" fill-rule="evenodd"/>
</svg>
