<svg width="32.000000" height="32.000000" viewBox="0 0 32 32" fill="none" xmlns="http://www.w3.org/2000/svg" xmlns:xlink="http://www.w3.org/1999/xlink">
	<desc>
			Created with Pixso.
	</desc>
	<defs/>
	<path id="youtube" d="M16 0C7.16 0 0 7.16 0 16C0 24.83 7.16 32 16 32C24.83 32 32 24.83 32 16C32 7.16 24.83 0 16 0ZM23.6 12.1C23.4 11.39 22.9 10.89 22.2 10.7C21 10.39 15.9 10.39 15.9 10.39C15.9 10.39 10.9 10.39 9.6 10.7C8.89 10.89 8.39 11.39 8.2 12.1C8 13.39 8 16 8 16C8 16 8 18.6 8.29 19.89C8.5 20.6 9 21.1 9.7 21.29C10.9 21.6 16 21.6 16 21.6C16 21.6 21 21.6 22.3 21.29C23 21.1 23.5 20.6 23.7 19.89C24 18.6 24 16 24 16C24 16 24 13.39 23.6 12.1ZM14.4 13.6L18.6 16L14.4 18.39L14.4 13.6Z" fill="#C0B7E8" fill-opacity="1.000000" fill-rule="evenodd"/>
</svg>
