<svg width="32.000000" height="32.000000" viewBox="0 0 32 32" fill="none" xmlns="http://www.w3.org/2000/svg" xmlns:xlink="http://www.w3.org/1999/xlink">
	<desc>
			Created with Pixso.
	</desc>
	<defs/>
	<path id="instagram" d="M16 0C7.16 0 0 7.16 0 16C0 24.83 7.16 32 16 32C24.83 32 32 24.83 32 16C32 7.16 24.83 0 16 0ZM21.4 8.1C20.9 7.89 20.29 7.79 19.4 7.7L12.6 7.7C11.7 7.7 11.1 7.89 10.6 8.1C10.1 8.29 9.59 8.6 9.09 9.1C8.59 9.6 8.4 10 8.09 10.6C7.9 11.1 7.79 11.7 7.7 12.6L7.7 19.39C7.7 20.29 7.9 20.89 8.09 21.39C8.29 21.89 8.59 22.39 9.09 22.89C9.59 23.39 10 23.6 10.6 23.89C11.1 24.1 11.7 24.2 12.6 24.29L19.4 24.29C20.29 24.29 20.9 24.1 21.4 23.89C21.9 23.7 22.4 23.39 22.9 22.89C23.4 22.39 23.6 22 23.9 21.39C24.1 20.89 24.2 20.29 24.3 19.39L24.3 12.6C24.3 11.7 24.1 11.1 23.9 10.6C23.7 10.1 23.4 9.6 22.9 9.1C22.4 8.6 22 8.39 21.4 8.1ZM20.75 9.44C20.46 9.34 20.07 9.2 19.4 9.2L12.6 9.2C11.8 9.29 11.4 9.39 11.1 9.5C10.7 9.6 10.4 9.79 10.1 10.1C9.86 10.33 9.75 10.57 9.61 10.86C9.57 10.93 9.54 11.01 9.5 11.1C9.48 11.14 9.46 11.19 9.44 11.24C9.34 11.53 9.2 11.92 9.2 12.6L9.2 19.39C9.29 20.2 9.4 20.6 9.5 20.89C9.59 21.29 9.79 21.6 10.1 21.89C10.33 22.13 10.57 22.24 10.86 22.38C10.93 22.42 11.01 22.45 11.1 22.5C11.14 22.51 11.19 22.53 11.24 22.55C11.53 22.65 11.92 22.79 12.6 22.79L19.4 22.79C20.2 22.7 20.6 22.6 20.9 22.5C21.3 22.39 21.6 22.2 21.9 21.89C22.13 21.66 22.24 21.42 22.38 21.13C22.42 21.06 22.45 20.98 22.5 20.89C22.51 20.85 22.53 20.8 22.55 20.75C22.65 20.46 22.8 20.07 22.8 19.39L22.8 12.6C22.7 11.79 22.6 11.39 22.5 11.1C22.4 10.7 22.2 10.39 21.9 10.1C21.66 9.86 21.42 9.75 21.13 9.61C21.06 9.57 20.98 9.54 20.9 9.5C20.85 9.48 20.8 9.46 20.75 9.44ZM21.4 11.6C21.4 12.15 20.95 12.6 20.4 12.6C19.84 12.6 19.4 12.15 19.4 11.6C19.4 11.04 19.84 10.6 20.4 10.6C20.95 10.6 21.4 11.04 21.4 11.6ZM16 11.7C13.6 11.7 11.7 13.6 11.7 16C11.7 18.39 13.6 20.29 16 20.29C18.4 20.29 20.29 18.39 20.29 16C20.29 13.6 18.4 11.7 16 11.7ZM16 18.79C14.5 18.79 13.2 17.6 13.2 16C13.2 14.5 14.4 13.2 16 13.2C17.5 13.2 18.79 14.39 18.79 16C18.79 17.5 17.5 18.79 16 18.79Z" fill="#C0B7E8" fill-opacity="1.000000" fill-rule="evenodd"/>
</svg>
