<svg width="32.000000" height="32.000000" viewBox="0 0 32 32" fill="none" xmlns="http://www.w3.org/2000/svg" xmlns:xlink="http://www.w3.org/1999/xlink">
	<desc>
			Created with Pixso.
	</desc>
	<defs/>
	<path id="twitter" d="M0 16C0 7.16 7.16 0 16 0C24.83 0 32 7.16 32 16C32 24.83 24.83 32 16 32C7.16 32 0 24.83 0 16ZM22.1 11.5C22.8 11.39 23.4 11.29 24 11C23.6 11.7 23 12.29 22.3 12.7C22.5 17.39 19.1 22.5 13 22.5C11.2 22.5 9.5 21.89 8 21C9.7 21.2 11.5 20.7 12.7 19.79C11.2 19.79 10 18.79 9.6 17.5C10.1 17.6 10.6 17.5 11.1 17.39C9.6 17 8.5 15.6 8.5 14.1C9 14.29 9.5 14.5 10 14.5C8.6 13.5 8.1 11.6 9 10.1C10.7 12.1 13.1 13.39 15.8 13.5C15.3 11.5 16.9 9.5 19 9.5C19.9 9.5 20.8 9.89 21.4 10.5C22.2 10.29 22.9 10.1 23.5 9.7C23.3 10.5 22.8 11.1 22.1 11.5Z" fill="#C0B7E8" fill-opacity="1.000000" fill-rule="evenodd"/>
</svg>
