<svg width="101.990906" height="102.925751" viewBox="0 0 101.991 102.926" fill="none" xmlns="http://www.w3.org/2000/svg" xmlns:xlink="http://www.w3.org/1999/xlink">
	<desc>
			Created with Pixso.
	</desc>
	<defs>
		<linearGradient x1="50.995453" y1="0.000000" x2="50.995453" y2="102.925743" id="paint_linear_1_6_0" gradientUnits="userSpaceOnUse">
			<stop stop-color="#C0B7E8"/>
			<stop offset="1.000000" stop-color="#8176AF"/>
		</linearGradient>
	</defs>
	<path id="Vector" d="M100.77 41.25C102.1 48.97 93.91 46.91 93.91 46.91C90.48 37.25 84.99 38.15 84.99 38.15C89.28 41.29 89.61 43.96 89.61 43.96C78.16 35.84 62.6 42.37 56.68 45.44C53.36 40.75 46.64 30.25 49.03 25.49C52.17 19.25 58.56 22.82 58.56 22.82C71.48 22.61 70.76 17.99 70.76 17.99C67.33 20.66 57.22 17.99 57.22 17.99C66 17.99 69.72 14.42 69.72 14.42C63.18 16.04 55.89 9.08 55.89 9.08C53.21 -4.59 40.87 1.22 40.87 1.22C48.59 -0.11 46.53 8.07 46.53 8.07C36.86 11.5 37.76 16.98 37.76 16.98C40.9 12.69 43.57 12.36 43.57 12.36C34.73 24.81 43.25 42.12 45.78 46.63C41.16 49.84 30.32 56.9 25.45 54.45C19.2 51.31 22.78 44.93 22.78 44.93C22.63 32.02 18.01 32.74 18.01 32.74C20.68 36.17 18.01 46.26 18.01 46.26C18.01 37.5 14.44 33.79 14.44 33.79C16.06 40.31 9.09 47.6 9.09 47.6C-4.59 50.27 1.22 62.6 1.22 62.6C-0.11 54.88 8.08 56.94 8.08 56.94C11.51 66.6 17 65.7 17 65.7C12.7 62.57 12.38 59.9 12.38 59.9C24.47 68.48 41.19 60.69 46.25 57.95C49.64 62.82 55.96 72.84 53.61 77.5C50.47 83.74 44.08 80.17 44.08 80.17C31.15 80.31 31.88 84.93 31.88 84.93C35.31 82.26 45.42 84.93 45.42 84.93C36.64 84.93 32.92 88.5 32.92 88.5C39.46 86.87 46.75 93.83 46.75 93.83C49.42 107.5 61.77 101.7 61.77 101.7C54.04 103.03 56.1 94.84 56.1 94.84C65.78 91.42 64.88 85.94 64.88 85.94C61.74 90.23 59.06 90.55 59.06 90.55C67.73 78.4 59.75 61.56 57.04 56.62C61.95 53.19 71.88 47.06 76.47 49.37C82.71 52.5 79.14 58.89 79.14 58.89C79.28 71.8 83.9 71.08 83.9 71.08C81.23 67.65 83.9 57.55 83.9 57.55C83.9 66.32 87.48 70.03 87.48 70.03C85.85 63.5 92.82 56.22 92.82 56.22C106.58 53.59 100.77 41.25 100.77 41.25Z" fill="url(#paint_linear_1_6_0)" fill-opacity="1.000000" fill-rule="nonzero"/>
</svg>
