<svg width="54.750000" height="43.916656" viewBox="0 0 54.75 43.9167" fill="none" xmlns="http://www.w3.org/2000/svg" xmlns:xlink="http://www.w3.org/1999/xlink">
	<desc>
			Created with Pixso.
	</desc>
	<defs/>
	<path id="shape" d="M49.04 3C49.78 3 50.46 3.3 50.95 3.79C51.44 4.28 51.75 4.96 51.75 5.7L51.75 38.2C51.75 39.7 50.53 40.91 49.04 40.91L5.7 40.91C4.21 40.91 3 39.7 3 38.2L3 5.7C3 4.96 3.3 4.28 3.79 3.79C4.28 3.3 4.96 3 5.7 3L49.04 3ZM3.79 3.79L23.54 23.54C25.66 25.66 29.08 25.66 31.2 23.54L50.95 3.79" stroke="#C0B7E8" stroke-opacity="1.000000" stroke-width="6.000000" stroke-linejoin="round"/>
</svg>
