<svg width="50.255135" height="50.255249" viewBox="0 0 50.2551 50.2552" fill="none" xmlns="http://www.w3.org/2000/svg" xmlns:xlink="http://www.w3.org/1999/xlink">
	<desc>
			Created with Pixso.
	</desc>
	<defs/>
	<path id="shape" d="M47.25 42.79C47.26 45.33 44.97 47.46 42.4 47.23C20.21 47.25 3 29.88 3.02 7.84C2.79 5.28 4.9 3 7.44 3L14.12 3C15.2 2.99 16.25 3.37 17.06 4.07C19.39 6.07 20.89 12.85 20.31 15.54C19.86 17.65 17.74 19.12 16.3 20.56C19.47 26.12 24.08 30.72 29.65 33.88C31.09 32.44 32.57 30.33 34.68 29.88C37.38 29.3 44.2 30.8 46.19 33.15C46.9 33.98 47.27 35.04 47.25 36.13L47.25 42.79ZM31.27 11.6C33.08 11.95 34.88 12.75 36.19 14.06C37.49 15.36 38.29 17.16 38.64 18.98M32.5 3C36.26 3.41 39.65 5.24 42.33 7.91C45.01 10.59 46.83 13.98 47.25 17.75" stroke="#C0B7E8" stroke-opacity="1.000000" stroke-width="6.000000" stroke-linejoin="round"/>
</svg>
