<svg width="40.833313" height="61.250000" viewBox="0 0 40.8333 61.25" fill="none" xmlns="http://www.w3.org/2000/svg" xmlns:xlink="http://www.w3.org/1999/xlink">
	<desc>
			Created with Pixso.
	</desc>
	<defs/>
	<path id="Combined-Shape" d="M20.41 0C31.69 0 40.83 9.14 40.83 20.41C40.83 23.82 40 27.03 38.52 29.86L20.41 61.25L2.73 30.62C0.99 27.62 0 24.13 0 20.41C0 9.14 9.14 0 20.41 0ZM20.41 5.83C12.36 5.83 5.83 12.36 5.83 20.41C5.83 22.73 6.36 24.95 7.37 26.96L7.86 27.85L20.41 49.58L33.05 27.7C34.32 25.5 35 23.02 35 20.41C35 12.36 28.47 5.83 20.41 5.83ZM20.41 11.66C25.24 11.66 29.16 15.58 29.16 20.41C29.16 25.24 25.24 29.16 20.41 29.16C15.58 29.16 11.66 25.24 11.66 20.41C11.66 15.58 15.58 11.66 20.41 11.66ZM20.41 17.5C18.8 17.5 17.5 18.8 17.5 20.41C17.5 22.02 18.8 23.33 20.41 23.33C22.02 23.33 23.33 22.02 23.33 20.41C23.33 18.8 22.02 17.5 20.41 17.5Z" fill="#C0B7E8" fill-opacity="1.000000" fill-rule="evenodd"/>
</svg>
